<?xml version="1.0" encoding="UTF-8" standalone="no"?>
<svg width="850px" height="175px" viewBox="0 0 850 175" version="1.1" xmlns="http://www.w3.org/2000/svg" xmlns:xlink="http://www.w3.org/1999/xlink" xmlns:sketch="http://www.bohemiancoding.com/sketch/ns">
    <!-- Generator: sketchtool 3.4 (381) - http://www.bohemiancoding.com/sketch -->
    <title>Group</title>
    <desc>Created with sketchtool.</desc>
    <defs></defs>
    <g id="Admin-Copy-2" stroke="none" stroke-width="1" fill="none" fill-rule="evenodd" sketch:type="MSPage">
        <g id="30-error-500" sketch:type="MSArtboardGroup" transform="translate(-243.000000, -532.000000)">
            <g id="Group" sketch:type="MSLayerGroup" transform="translate(245.000000, 531.000000)">
                <g id="noun_128752_cc" transform="translate(450.500000, 88.000000) scale(-1, 1) translate(-450.500000, -88.000000) translate(53.000000, 0.000000)" fill="#000000" sketch:type="MSShapeGroup">
                    <g id="Group" transform="translate(0.000000, 12.000000)">
                        <path d="M405.92,137.27 C401.85,137.27 398.53,140.58 398.53,144.665 C398.53,148.735 401.84,152.05 405.92,152.05 C410,152.05 413.315,148.75 413.315,144.665 C413.315,140.58 410.015,137.27 405.92,137.27 L405.92,137.27 Z M405.92,147.085 C404.585,147.085 403.51,145.99 403.51,144.665 C403.51,143.315 404.595,142.245 405.92,142.245 C407.265,142.245 408.35,143.33 408.35,144.665 C408.355,145.99 407.265,147.085 405.92,147.085 L405.92,147.085 Z M148.15,137.27 C144.07,137.27 140.76,140.58 140.76,144.665 C140.76,148.735 144.065,152.05 148.15,152.05 C152.225,152.05 155.54,148.75 155.54,144.665 C155.535,140.58 152.225,137.27 148.15,137.27 L148.15,137.27 Z M148.15,147.085 C146.805,147.085 145.73,145.99 145.73,144.665 C145.73,143.315 146.81,142.245 148.15,142.245 C149.485,142.245 150.565,143.33 150.565,144.665 C150.565,145.99 149.48,147.085 148.15,147.085 L148.15,147.085 Z M43.835,137.27 C39.76,137.27 36.45,140.58 36.45,144.665 C36.45,148.735 39.76,152.05 43.835,152.05 C47.915,152.05 51.23,148.75 51.23,144.665 C51.23,140.58 47.92,137.27 43.835,137.27 L43.835,137.27 Z M43.835,147.085 C42.5,147.085 41.42,145.99 41.42,144.665 C41.42,143.315 42.505,142.245 43.835,142.245 C45.18,142.245 46.26,143.33 46.26,144.665 C46.265,145.99 45.18,147.085 43.835,147.085 L43.835,147.085 Z M474.58,144.555 C474.59,147.865 469.625,147.885 469.615,144.58 C469.565,132.11 459.44,122.005 446.96,122.005 C439.45,122.005 432.73,125.63 428.61,131.245 C428.505,131.44 428.365,131.615 428.21,131.78 C427.685,132.36 427.035,132.61 426.4,132.59 C425.77,132.61 425.125,132.365 424.59,131.78 C424.445,131.615 424.3,131.44 424.19,131.245 C420.06,125.64 413.42,122.005 405.93,122.005 C393.45,122.005 383.33,132.11 383.285,144.58 C383.28,147.885 378.31,147.865 378.32,144.555 C378.385,129.35 390.725,117.045 405.93,117.045 C414.055,117.045 421.36,120.54 426.41,126.115 C431.475,120.52 438.85,117.045 446.975,117.045 C462.18,117.045 474.53,129.35 474.58,144.555 L474.58,144.555 Z M43.835,126.245 C33.665,126.245 25.42,134.485 25.42,144.665 C25.42,154.83 33.665,163.085 43.835,163.085 C54.01,163.085 62.265,154.84 62.265,144.665 C62.265,134.49 54.015,126.245 43.835,126.245 L43.835,126.245 Z M43.835,158.11 C36.41,158.11 30.385,152.09 30.385,144.665 C30.385,137.235 36.41,131.21 43.835,131.21 C51.27,131.21 57.29,137.235 57.29,144.665 C57.295,152.09 51.275,158.11 43.835,158.11 L43.835,158.11 Z M475.965,108.21 C475.965,109.025 475.295,109.695 474.475,109.695 L128.28,109.695 C127.45,109.695 126.785,109.025 126.785,108.21 L126.815,103.785 L475.965,103.785 L475.965,108.21 L475.965,108.21 Z M120.115,136.7 L90.265,136.7 C87.795,136.7 85.795,138.695 85.795,141.17 L85.795,146.13 L67.5,146.13 C64.19,146.13 64.19,151.085 67.5,151.085 L85.795,151.085 L85.795,154.565 C85.795,157.035 87.79,159.045 90.265,159.045 L120.115,159.045 C122.575,159.045 124.58,157.05 124.58,154.565 L124.58,141.165 C124.58,138.695 122.575,136.7 120.115,136.7 L120.115,136.7 Z M119.615,154.08 L90.76,154.08 L90.76,141.67 L119.615,141.67 L119.615,154.08 L119.615,154.08 Z M446.965,137.27 C442.885,137.27 439.575,140.58 439.575,144.665 C439.575,148.735 442.875,152.05 446.965,152.05 C451.045,152.05 454.355,148.75 454.355,144.665 C454.355,140.58 451.05,137.27 446.965,137.27 L446.965,137.27 Z M446.965,147.085 C445.625,147.085 444.545,145.99 444.545,144.665 C444.545,143.315 445.64,142.245 446.965,142.245 C448.31,142.245 449.385,143.33 449.385,144.665 C449.39,145.99 448.31,147.085 446.965,147.085 L446.965,147.085 Z M100.075,28.39 L62.83,28.39 C59.515,28.39 59.515,23.425 62.83,23.425 L100.075,23.425 C103.39,23.425 103.39,28.39 100.075,28.39 L100.075,28.39 Z M148.15,126.245 C137.975,126.245 129.725,134.485 129.725,144.665 C129.725,154.83 137.97,163.085 148.15,163.085 C158.32,163.085 166.57,154.84 166.57,144.665 C166.565,134.49 158.32,126.245 148.15,126.245 L148.15,126.245 Z M148.15,158.11 C140.72,158.11 134.7,152.09 134.7,144.665 C134.7,137.235 140.72,131.21 148.15,131.21 C155.575,131.21 161.605,137.235 161.605,144.665 C161.605,152.09 155.575,158.11 148.15,158.11 L148.15,158.11 Z M405.92,126.245 C395.755,126.245 387.5,134.485 387.5,144.665 C387.5,154.83 395.745,163.085 405.92,163.085 C416.105,163.085 424.355,154.84 424.355,144.665 C424.355,134.49 416.105,126.245 405.92,126.245 L405.92,126.245 Z M405.92,158.11 C398.5,158.11 392.47,152.09 392.47,144.665 C392.47,137.235 398.5,131.21 405.92,131.21 C413.36,131.21 419.375,137.235 419.375,144.665 C419.39,152.09 413.365,158.11 405.92,158.11 L405.92,158.11 Z M188.545,117.045 C180.57,117.045 173.36,120.405 168.305,125.795 C163.28,120.42 156.13,117.055 148.195,117.045 C140.015,117.045 132.675,120.58 127.62,126.175 L66.125,126.175 C65.84,124.825 65.31,123.55 64.585,122.395 L92.195,122.395 C97.175,122.395 102.625,119.945 102.625,113.52 L102.625,43.975 C102.625,37.55 97.175,35.105 92.195,35.105 L23.89,35.105 L39.725,19.3 C41.845,17.17 44.81,15.795 48.09,15.73 L100.285,15.73 C103.6,15.73 103.6,10.765 100.285,10.765 L47.965,10.765 C43.375,10.855 39.195,12.8 36.21,15.795 L14.98,36.98 C12.875,38.385 11.415,40.645 11.415,43.975 L11.415,52.44 C11.415,53.63 12.365,54.695 13.515,54.89 L13.515,78.415 C12.36,78.615 11.415,79.67 11.415,80.87 L11.415,91.3 C11.415,92.955 12.64,93.775 13.875,93.785 L13.875,114.76 C12.64,114.77 11.415,115.59 11.415,117.24 L11.415,126.155 L5.05,126.155 C2.605,126.175 0.615,128.165 0.615,130.625 L0.615,146.75 C0.615,147.88 1.05,148.98 1.825,149.81 C2.705,150.74 3.605,151.14 4.435,151.165 C4.57,151.195 20.155,151.215 20.155,151.215 C23.465,151.215 23.465,146.26 20.155,146.26 L5.58,146.25 L5.58,131.125 L23.39,131.12 C25.51,131.12 26.095,129.48 26.1,128.495 C26.125,125.105 28.72,122.45 31.56,122.4 L55.95,122.4 C58.75,122.4 61.385,125.07 61.41,128.495 L61.455,128.66 C61.455,129.91 62.29,131.15 63.94,131.15 L128.635,131.15 C129.655,131.15 130.24,130.74 130.655,130.245 C134.845,125.24 141.105,122.01 148.175,122.01 C155.495,122.03 161.995,125.5 166.13,130.91 C166.235,131.08 166.36,131.235 166.5,131.395 C167.03,131.97 167.67,132.205 168.295,132.195 C168.93,132.205 169.57,131.97 170.105,131.385 C170.24,131.24 170.37,131.08 170.47,130.91 C174.61,125.49 181.17,122.01 188.53,122.01 C196.055,122.02 202.71,125.68 206.845,131.365 C209.565,135.115 211.17,139.735 211.17,144.745 C211.17,148.055 216.135,148.055 216.135,144.745 C216.135,138.65 214.17,133.005 210.83,128.405 C205.835,121.52 197.71,117.045 188.545,117.045 L188.545,117.045 Z M31.41,117.44 C26.325,117.525 22.405,121.47 21.395,126.16 L16.375,126.16 L16.375,119.91 C17.615,119.89 18.84,119.07 18.84,117.43 L18.84,91.3 C18.84,89.66 17.615,88.835 16.375,88.825 L16.375,83.355 L56.39,83.37 C58.85,83.37 60.865,81.36 60.865,78.9 L60.865,54.455 C60.865,52 58.855,49.985 56.395,49.985 L16.375,49.955 L16.375,43.97 C16.375,42.76 16.82,41.76 17.78,41.075 C17.855,41.015 17.945,40.96 18.03,40.91 C18.915,40.37 20.18,40.07 21.855,40.07 L92.2,40.07 C96,40.07 97.66,41.625 97.66,43.975 L97.66,113.52 C97.66,115.875 96,117.435 92.2,117.435 L31.41,117.435 L31.41,117.44 Z M18.48,78.385 L18.48,54.925 L55.895,54.95 L55.895,78.4 L18.48,78.385 L18.48,78.385 Z M446.965,126.245 C436.795,126.245 428.54,134.485 428.54,144.665 C428.54,154.83 436.785,163.085 446.965,163.085 C457.145,163.085 465.39,154.84 465.39,144.665 C465.39,134.49 457.145,126.245 446.965,126.245 L446.965,126.245 Z M446.965,158.11 C439.54,158.11 433.515,152.09 433.515,144.665 C433.515,137.235 439.54,131.21 446.965,131.21 C454.395,131.21 460.415,137.235 460.415,144.665 C460.425,152.09 454.41,158.11 446.965,158.11 L446.965,158.11 Z M188.53,126.245 C178.36,126.245 170.11,134.485 170.11,144.665 C170.11,154.83 178.355,163.085 188.53,163.085 C198.705,163.085 206.955,154.84 206.955,144.665 C206.95,134.49 198.705,126.245 188.53,126.245 L188.53,126.245 Z M188.53,158.11 C181.105,158.11 175.08,152.09 175.08,144.665 C175.08,137.235 181.105,131.21 188.53,131.21 C195.965,131.21 201.98,137.235 201.98,144.665 C201.98,152.09 195.965,158.11 188.53,158.11 L188.53,158.11 Z M188.53,137.27 C184.46,137.27 181.145,140.58 181.145,144.665 C181.145,148.735 184.455,152.05 188.53,152.05 C192.61,152.05 195.92,148.75 195.92,144.665 C195.915,140.58 192.61,137.27 188.53,137.27 L188.53,137.27 Z M188.53,147.085 C187.195,147.085 186.11,145.99 186.11,144.665 C186.11,143.315 187.2,142.245 188.53,142.245 C189.87,142.245 190.95,143.33 190.95,144.665 C190.95,145.99 189.865,147.085 188.53,147.085 L188.53,147.085 Z" id="Shape"></path>
                    </g>
                    <path d="M780.465,30.405 L434.27,30.405 C430.705,30.405 427.815,33.295 427.815,36.86 L427.82,138.195 C427.82,141.755 430.71,144.655 434.28,144.655 L780.475,144.655 C784.04,144.655 786.92,141.775 786.92,138.205 L786.92,36.86 C786.92,33.295 784.03,30.405 780.465,30.405 Z M434.265,35.365 L780.455,35.365 C781.285,35.365 781.95,36.035 781.95,36.855 L781.96,128.82 L777.955,128.82 L777.955,38.945 L771.5,38.945 L771.5,42.915 L773.98,42.915 L773.98,128.82 L766.04,128.82 L766.04,38.945 L759.575,38.945 L759.575,42.915 L762.065,42.915 L762.065,128.82 L754.115,128.82 L754.115,38.945 L747.65,38.945 L747.65,42.915 L750.14,42.915 L750.14,128.82 L742.2,128.82 L742.2,38.945 L735.735,38.945 L735.735,42.915 L738.23,42.915 L738.23,128.82 L730.28,128.82 L730.28,38.945 L723.815,38.945 L723.815,42.915 L726.305,42.915 L726.305,128.82 L718.355,128.82 L718.355,38.945 L711.9,38.945 L711.9,42.915 L714.39,42.915 L714.39,128.82 L706.44,128.82 L706.44,38.945 L699.975,38.945 L699.975,42.915 L702.465,42.915 L702.465,128.82 L694.52,128.82 L694.52,38.945 L688.055,38.945 L688.055,42.915 L690.545,42.915 L690.545,128.82 L682.6,128.82 L682.6,38.945 L676.15,38.945 L676.15,42.915 L678.64,42.915 L678.64,128.82 L670.69,128.82 L670.69,38.945 L664.225,38.945 L664.225,42.915 L666.725,42.915 L666.725,128.82 L658.765,128.82 L658.765,38.945 L652.31,38.945 L652.31,42.915 L654.8,42.915 L654.8,128.82 L646.85,128.82 L646.85,38.945 L640.385,38.945 L640.385,42.915 L642.885,42.915 L642.885,128.82 L634.93,128.82 L634.93,38.945 L628.47,38.945 L628.47,42.915 L630.96,42.915 L630.96,128.82 L623.015,128.82 L623.015,38.945 L616.55,38.945 L616.55,42.915 L619.045,42.915 L619.045,128.82 L611.095,128.82 L611.095,38.945 L604.63,38.945 L604.63,42.915 L607.12,42.915 L607.12,128.82 L599.17,128.82 L599.17,38.945 L592.705,38.945 L592.705,42.915 L595.205,42.915 L595.205,128.82 L587.255,128.82 L587.255,38.945 L580.8,38.945 L580.8,42.915 L583.285,42.915 L583.285,128.82 L575.35,128.82 L575.35,38.945 L568.885,38.945 L568.885,42.915 L571.38,42.915 L571.38,128.82 L563.43,128.82 L563.43,38.945 L556.975,38.945 L556.975,42.915 L559.465,42.915 L559.465,128.82 L551.51,128.82 L551.51,38.945 L545.05,38.945 L545.05,42.915 L547.54,42.915 L547.54,128.82 L539.6,128.82 L539.6,38.945 L533.135,38.945 L533.135,42.915 L535.63,42.915 L535.63,128.82 L527.68,128.82 L527.68,38.945 L521.215,38.945 L521.215,42.915 L523.705,42.915 L523.705,128.82 L515.76,128.82 L515.76,38.945 L509.295,38.945 L509.295,42.915 L511.795,42.915 L511.795,128.82 L503.835,128.82 L503.835,38.945 L497.38,38.945 L497.38,42.915 L499.87,42.915 L499.87,128.82 L491.925,128.82 L491.925,38.945 L485.455,38.945 L485.455,42.915 L487.95,42.915 L487.95,128.82 L480,128.82 L480,38.945 L473.535,38.945 L473.535,42.915 L476.03,42.915 L476.03,128.82 L468.09,128.82 L468.09,38.945 L461.62,38.945 L461.62,42.915 L464.11,42.915 L464.11,128.82 L456.165,128.82 L456.165,38.945 L449.7,38.945 L449.7,42.915 L452.195,42.915 L452.195,128.82 L444.245,128.82 L444.245,38.945 L437.785,38.945 L437.785,42.915 L440.275,42.915 L440.275,128.82 L432.815,128.82 L432.775,36.855 C432.775,36.03 433.445,35.365 434.265,35.365 Z" id="Path-Copy-2" transform="translate(607.367500, 87.530000) rotate(-350.000000) translate(-607.367500, -87.530000) "></path>
                </g>
                <path d="M76.5,171.5 L47.3400002,171.5" id="Line" stroke="#000000" stroke-width="5" stroke-linecap="square" sketch:type="MSShapeGroup"></path>
                <path d="M36.5,171.5 L27.3400002,171.5" id="Line-Copy-6" stroke="#000000" stroke-width="5" stroke-linecap="square" sketch:type="MSShapeGroup"></path>
                <path d="M15.5,171.5 L16.34,171.5" id="Line-Copy-7" stroke="#000000" stroke-width="5" stroke-linecap="square" sketch:type="MSShapeGroup"></path>
                <path d="M5.5,171.5 L6.34000003,171.5" id="Line-Copy-8" stroke="#000000" stroke-width="5" stroke-linecap="square" sketch:type="MSShapeGroup"></path>
                <path d="M77.1748532,171.57689 L29.2748209,160.518296" id="Line-Copy" stroke="#000000" stroke-width="5" stroke-linecap="square" sketch:type="MSShapeGroup"></path>
                <path d="M20.1748532,157.57689 L11.2496235,155.516338" id="Line-Copy-2" stroke="#000000" stroke-width="5" stroke-linecap="square" sketch:type="MSShapeGroup"></path>
                <path d="M1.17485316,152.57689 L1.99332405,152.765849" id="Line-Copy-3" stroke="#000000" stroke-width="5" stroke-linecap="square" sketch:type="MSShapeGroup"></path>
                <path d="M60.8516523,158.717749 L53,154" id="Line-Copy-5" stroke="#000000" stroke-width="5" stroke-linecap="square" sketch:type="MSShapeGroup"></path>
                <path d="M44,148 L44.7200206,148.432632" id="Line-Copy-4" stroke="#000000" stroke-width="5" stroke-linecap="square" sketch:type="MSShapeGroup"></path>
            </g>
        </g>
    </g>
</svg>