<?xml version="1.0" encoding="UTF-8" standalone="no"?>
<svg width="14px" height="14px" viewBox="0 0 14 14" version="1.1" xmlns="http://www.w3.org/2000/svg" xmlns:xlink="http://www.w3.org/1999/xlink" xmlns:sketch="http://www.bohemiancoding.com/sketch/ns">
    <!-- Generator: Sketch 3.3 (11970) - http://www.bohemiancoding.com/sketch -->
    <title>Shape</title>
    <desc>Created with Sketch.</desc>
    <defs></defs>
    <g id="Power" stroke="none" stroke-width="1" fill="none" fill-rule="evenodd" sketch:type="MSPage">
        <g id="10-Power-Arival-board" sketch:type="MSArtboardGroup" transform="translate(-1294.000000, -173.000000)" fill="#002A6B">
            <g id="Rectangle-1-Copy-8-+-ic_menu-Copy-+-ic_fullscreen" sketch:type="MSLayerGroup" transform="translate(1280.000000, 160.000000)">
                <g id="ic_fullscreen" transform="translate(9.000000, 8.000000)" sketch:type="MSShapeGroup">
                    <path d="M7,14 L5,14 L5,19 L10,19 L10,17 L7,17 L7,14 L7,14 Z M5,10 L7,10 L7,7 L10,7 L10,5 L5,5 L5,10 L5,10 Z M17,17 L14,17 L14,19 L19,19 L19,14 L17,14 L17,17 L17,17 Z M14,5 L14,7 L17,7 L17,10 L19,10 L19,5 L14,5 L14,5 Z" id="Shape"></path>
                </g>
            </g>
        </g>
    </g>
</svg>