<?xml version="1.0" encoding="UTF-8" standalone="no"?>
<svg width="18px" height="18px" viewBox="0 0 18 18" version="1.1" xmlns="http://www.w3.org/2000/svg" xmlns:xlink="http://www.w3.org/1999/xlink" xmlns:sketch="http://www.bohemiancoding.com/sketch/ns">
    <!-- Generator: sketchtool 3.4 (356) - http://www.bohemiancoding.com/sketch -->
    <title>Fill 76</title>
    <desc>Created with sketchtool.</desc>
    <defs></defs>
    <g id="Admin-Copy-2" stroke="none" stroke-width="1" fill="none" fill-rule="evenodd" sketch:type="MSPage">
        <g id="31-Admin-company-list" sketch:type="MSArtboardGroup" transform="translate(-1226.000000, -239.000000)" fill="#FFFFFF">
            <g id="Rectangle-414-+-Search" sketch:type="MSLayerGroup" transform="translate(79.000000, 227.000000)">
                <path d="M1164.59137,27.2281341 L1160.2911,22.9274097 C1160.93931,21.857698 1161.3158,20.6083577 1161.3158,19.2669002 C1161.3158,15.3737946 1157.94236,12 1154.04852,12 C1150.15468,12 1147,15.1550161 1147,19.0492731 C1147,22.9423787 1150.37343,26.3173248 1154.26728,26.3173248 C1155.56254,26.3173248 1156.7749,25.9626733 1157.81341,25.3523965 L1162.14361,29.6830591 C1162.56616,30.105647 1163.2512,30.105647 1163.6726,29.6830591 L1164.7491,28.6133474 C1165.17164,28.1850022 1165.02082,27.6576309 1164.59137,27.2281341 M1149.16913,19.0492731 C1149.16913,16.3525404 1151.35208,14.16821 1154.04852,14.16821 C1156.74497,14.16821 1159.14667,16.5713189 1159.14667,19.2669002 C1159.14667,21.9636329 1156.96257,24.1479633 1154.26728,24.1479633 C1151.57083,24.1479633 1149.16913,21.7448544 1149.16913,19.0492731" id="Fill-76" sketch:type="MSShapeGroup"></path>
            </g>
        </g>
    </g>
</svg>